<svg width="28" height="28" viewBox="0 0 28 28" fill="none" xmlns="http://www.w3.org/2000/svg">
    <path d="M13.5581 16.317C13.6753 16.4342 13.8343 16.5 14 16.5C14.1658 16.5 14.3247 16.4342 14.4419 16.317L17.7232 13.0357C17.7812 12.9777 17.8273 12.9088 17.8587 12.833C17.8901 12.7571 17.9063 12.6759 17.9063 12.5938C17.9063 12.5117 17.8901 12.4304 17.8587 12.3546C17.8273 12.2788 17.7813 12.2099 17.7232 12.1518C17.6652 12.0938 17.5963 12.0477 17.5205 12.0163C17.4446 11.9849 17.3634 11.9687 17.2813 11.9687C17.1992 11.9687 17.1179 11.9849 17.0421 12.0163C16.9663 12.0477 16.8974 12.0937 16.8393 12.1518L14.625 14.3661V7.12271C14.625 6.95695 14.5592 6.79798 14.442 6.68077C14.3247 6.56356 14.1658 6.49771 14 6.49771C13.8343 6.49771 13.6753 6.56356 13.5581 6.68077C13.4409 6.79798 13.375 6.95695 13.375 7.12271V14.3661L11.1607 12.1518C11.1027 12.0937 11.0338 12.0477 10.9579 12.0163C10.8821 11.9849 10.8008 11.9687 10.7187 11.9687C10.553 11.9687 10.394 12.0346 10.2768 12.1518C10.1596 12.269 10.0937 12.428 10.0938 12.5938C10.0938 12.7595 10.1596 12.9185 10.2768 13.0357L13.5581 16.317Z" fill="black" fill-opacity="0.56"/>
    <path d="M21.5 14C21.3342 14 21.1753 14.0659 21.0581 14.1831C20.9409 14.3003 20.875 14.4592 20.875 14.625V20.25H7.125V14.625C7.125 14.4592 7.05915 14.3003 6.94194 14.1831C6.82473 14.0658 6.66576 14 6.5 14C6.33424 14 6.17527 14.0658 6.05806 14.1831C5.94085 14.3003 5.875 14.4592 5.875 14.625V20.25C5.87538 20.5814 6.0072 20.8991 6.24154 21.1335C6.47587 21.3678 6.7936 21.4996 7.125 21.5H20.875C21.2064 21.4996 21.5241 21.3678 21.7585 21.1335C21.9928 20.8991 22.1246 20.5814 22.125 20.25V14.625C22.125 14.4592 22.0591 14.3003 21.9419 14.1831C21.8247 14.0659 21.6658 14 21.5 14Z" fill="black" fill-opacity="0.56"/>
</svg>
