<svg width="28" height="28" viewBox="0 0 28 28" fill="none" xmlns="http://www.w3.org/2000/svg">
    <path d="M11.5 20.8773H7.75C7.58424 20.8773 7.42527 20.8115 7.30806 20.6943C7.19085 20.5771 7.125 20.4181 7.125 20.2523V16.7612C7.125 16.6792 7.14117 16.5979 7.17258 16.5221C7.20398 16.4462 7.25002 16.3773 7.30806 16.3193L16.6831 6.94429C16.8003 6.82708 16.9592 6.76123 17.125 6.76123C17.2908 6.76123 17.4497 6.82708 17.5669 6.94429L21.0581 10.4354C21.1753 10.5526 21.2411 10.7116 21.2411 10.8773C21.2411 11.0431 21.1753 11.2021 21.0581 11.3193L11.5 20.8773Z" stroke="black" stroke-opacity="0.56" stroke-width="1.5" stroke-linecap="round" stroke-linejoin="round"/>
    <path d="M14.625 9.00244L19 13.3774" stroke="black" stroke-opacity="0.56" stroke-width="1.5" stroke-linecap="round" stroke-linejoin="round"/>
</svg>
