<svg width="28" height="28" viewBox="0 0 28 28" fill="none" xmlns="http://www.w3.org/2000/svg">
    <path d="M9 16.5024C10.3807 16.5024 11.5 15.3832 11.5 14.0024C11.5 12.6217 10.3807 11.5024 9 11.5024C7.61929 11.5024 6.5 12.6217 6.5 14.0024C6.5 15.3832 7.61929 16.5024 9 16.5024Z" stroke="black" stroke-opacity="0.56" stroke-width="1.5" stroke-linecap="round" stroke-linejoin="round"/>
    <path d="M17.75 22.1274C19.1307 22.1274 20.25 21.0082 20.25 19.6274C20.25 18.2467 19.1307 17.1274 17.75 17.1274C16.3693 17.1274 15.25 18.2467 15.25 19.6274C15.25 21.0082 16.3693 22.1274 17.75 22.1274Z" stroke="black" stroke-opacity="0.56" stroke-width="1.5" stroke-linecap="round" stroke-linejoin="round"/>
    <path d="M17.75 10.8774C19.1307 10.8774 20.25 9.75815 20.25 8.37744C20.25 6.99673 19.1307 5.87744 17.75 5.87744C16.3693 5.87744 15.25 6.99673 15.25 8.37744C15.25 9.75815 16.3693 10.8774 17.75 10.8774Z" stroke="black" stroke-opacity="0.56" stroke-width="1.5" stroke-linecap="round" stroke-linejoin="round"/>
    <path d="M15.6467 9.72876L11.1021 12.6503" stroke="black" stroke-opacity="0.56" stroke-width="1.5" stroke-linecap="round" stroke-linejoin="round"/>
    <path d="M11.1021 15.3538L15.6467 18.2753" stroke="black" stroke-opacity="0.56" stroke-width="1.5" stroke-linecap="round" stroke-linejoin="round"/>
</svg>
