<svg width="28" height="28" viewBox="0 0 28 28" fill="none" xmlns="http://www.w3.org/2000/svg">
    <path d="M8.375 19.625C8.375 19.9702 8.09518 20.25 7.75 20.25C7.40482 20.25 7.125 19.9702 7.125 19.625L7.125 8.63389L5.69194 10.0669C5.44786 10.311 5.05214 10.311 4.80806 10.0669C4.56398 9.82286 4.56398 9.42714 4.80806 9.18306L7.30702 6.68409L7.31629 6.67498C7.37427 6.61905 7.4404 6.57654 7.51076 6.54742C7.58445 6.51687 7.66526 6.5 7.75 6.5C7.83474 6.5 7.91555 6.51687 7.98924 6.54742C8.06295 6.57792 8.13202 6.62314 8.19194 6.68306L10.6919 9.18306C10.936 9.42714 10.936 9.82286 10.6919 10.0669C10.4479 10.311 10.0521 10.311 9.80806 10.0669L8.375 8.63388L8.375 19.625Z" fill="#707070"/>
    <path d="M12.75 8.375C12.75 8.02982 13.0298 7.75 13.375 7.75H22.125C22.4702 7.75 22.75 8.02982 22.75 8.375C22.75 8.72018 22.4702 9 22.125 9H13.375C13.0298 9 12.75 8.72018 12.75 8.375Z" fill="#707070"/>
    <path d="M13.375 11.5C13.0298 11.5 12.75 11.7798 12.75 12.125C12.75 12.4702 13.0298 12.75 13.375 12.75H19.625C19.9702 12.75 20.25 12.4702 20.25 12.125C20.25 11.7798 19.9702 11.5 19.625 11.5H13.375Z" fill="#707070"/>
    <path d="M13.375 15.25C13.0298 15.25 12.75 15.5298 12.75 15.875C12.75 16.2202 13.0298 16.5 13.375 16.5H17.125C17.4702 16.5 17.75 16.2202 17.75 15.875C17.75 15.5298 17.4702 15.25 17.125 15.25H13.375Z" fill="#707070"/>
    <path d="M13.375 19C13.0298 19 12.75 19.2798 12.75 19.625C12.75 19.9702 13.0298 20.25 13.375 20.25H14.625C14.9702 20.25 15.25 19.9702 15.25 19.625C15.25 19.2798 14.9702 19 14.625 19H13.375Z" fill="#707070"/>
</svg>
