<svg width="28" height="28" viewBox="0 0 28 28" fill="none" xmlns="http://www.w3.org/2000/svg">
    <path d="M20.875 8.37744L7.125 8.37745" stroke="black" stroke-opacity="0.56" stroke-width="1.5" stroke-linecap="round" stroke-linejoin="round"/>
    <path d="M12.125 12.1274V17.1274" stroke="black" stroke-opacity="0.56" stroke-width="1.5" stroke-linecap="round" stroke-linejoin="round"/>
    <path d="M15.875 12.1274V17.1274" stroke="black" stroke-opacity="0.56" stroke-width="1.5" stroke-linecap="round" stroke-linejoin="round"/>
    <path d="M19.625 8.37745V20.2524C19.625 20.4182 19.5592 20.5772 19.4419 20.6944C19.3247 20.8116 19.1658 20.8774 19 20.8774H9C8.83424 20.8774 8.67527 20.8116 8.55806 20.6944C8.44085 20.5772 8.375 20.4182 8.375 20.2524V8.37744" stroke="black" stroke-opacity="0.56" stroke-width="1.5" stroke-linecap="round" stroke-linejoin="round"/>
    <path d="M17.125 8.37744V7.12744C17.125 6.79592 16.9933 6.47798 16.7589 6.24356C16.5245 6.00914 16.2065 5.87744 15.875 5.87744H12.125C11.7935 5.87744 11.4755 6.00914 11.2411 6.24356C11.0067 6.47798 10.875 6.79592 10.875 7.12744V8.37744" stroke="black" stroke-opacity="0.56" stroke-width="1.5" stroke-linecap="round" stroke-linejoin="round"/>
</svg>
