<svg width="28" height="28" viewBox="0 0 28 28" fill="none" xmlns="http://www.w3.org/2000/svg">
    <path d="M11.1607 10.8459L13.375 8.63158V15.875C13.375 16.0408 13.4409 16.1997 13.5581 16.3169C13.6753 16.4341 13.8343 16.5 14 16.5C14.1658 16.5 14.3247 16.4341 14.442 16.3169C14.5592 16.1997 14.625 16.0408 14.625 15.875V8.63158L16.8393 10.8459C16.8974 10.904 16.9663 10.95 17.0421 10.9814C17.1179 11.0128 17.1992 11.029 17.2813 11.029C17.3634 11.029 17.4446 11.0128 17.5205 10.9814C17.5963 10.95 17.6652 10.9039 17.7232 10.8459C17.7813 10.7878 17.8273 10.7189 17.8587 10.6431C17.8901 10.5673 17.9063 10.486 17.9063 10.4039C17.9063 10.3218 17.8901 10.2406 17.8587 10.1647C17.8273 10.0889 17.7812 10.02 17.7232 9.96198L14.4419 6.68073C14.3247 6.56356 14.1658 6.49774 14 6.49774C13.8343 6.49774 13.6753 6.56356 13.5581 6.68073L10.2768 9.96198C10.2188 10.02 10.1727 10.0889 10.1413 10.1647C10.1099 10.2406 10.0938 10.3218 10.0938 10.4039C10.0937 10.486 10.1099 10.5673 10.1413 10.6431C10.1727 10.7189 10.2188 10.7878 10.2768 10.8459C10.3348 10.9039 10.4037 10.95 10.4796 10.9814C10.5554 11.0128 10.6367 11.029 10.7187 11.029C10.8008 11.029 10.8821 11.0128 10.9579 10.9814C11.0338 10.95 11.1027 10.904 11.1607 10.8459Z" fill="black" fill-opacity="0.56"/>
    <path d="M21.5 14C21.3342 14 21.1753 14.0659 21.0581 14.1831C20.9409 14.3003 20.875 14.4592 20.875 14.625V20.25H7.125V14.625C7.125 14.4592 7.05915 14.3003 6.94194 14.1831C6.82473 14.0658 6.66576 14 6.5 14C6.33424 14 6.17527 14.0658 6.05806 14.1831C5.94085 14.3003 5.875 14.4592 5.875 14.625V20.25C5.87538 20.5814 6.0072 20.8991 6.24154 21.1335C6.47587 21.3678 6.7936 21.4996 7.125 21.5H20.875C21.2064 21.4996 21.5241 21.3678 21.7585 21.1335C21.9928 20.8991 22.1246 20.5814 22.125 20.25V14.625C22.125 14.4592 22.0591 14.3003 21.9419 14.1831C21.8247 14.0659 21.6658 14 21.5 14Z" fill="black" fill-opacity="0.56"/>
</svg>
