<svg width="33" height="21" viewBox="0 0 33 21" fill="none" xmlns="http://www.w3.org/2000/svg">
    <path fill-rule="evenodd" clip-rule="evenodd" d="M8.84375 19.1562C8.84375 18.5522 9.33344 18.0625 9.9375 18.0625H31.8125C32.4166 18.0625 32.9062 18.5522 32.9062 19.1562C32.9062 19.7603 32.4166 20.25 31.8125 20.25H9.9375C9.33344 20.25 8.84375 19.7603 8.84375 19.1562Z" fill="#131E29" fill-opacity="0.87"/>
    <path fill-rule="evenodd" clip-rule="evenodd" d="M4.46875 10.4062C4.46875 9.80219 4.95844 9.3125 5.5625 9.3125H27.4375C28.0416 9.3125 28.5312 9.80219 28.5312 10.4062C28.5312 11.0103 28.0416 11.5 27.4375 11.5H5.5625C4.95844 11.5 4.46875 11.0103 4.46875 10.4062Z" fill="#131E29" fill-opacity="0.87"/>
    <path fill-rule="evenodd" clip-rule="evenodd" d="M0.09375 1.65625C0.09375 1.05219 0.583439 0.5625 1.1875 0.5625H23.0625C23.6666 0.5625 24.1562 1.05219 24.1562 1.65625C24.1562 2.26031 23.6666 2.75 23.0625 2.75H1.1875C0.583439 2.75 0.09375 2.26031 0.09375 1.65625Z" fill="#131E29" fill-opacity="0.87"/>
</svg>
