<svg width="53" height="53" viewBox="0 0 53 53" fill="none" xmlns="http://www.w3.org/2000/svg">
    <rect x="0.5" y="0.5" width="52" height="52" rx="4" fill="#4CAF50"/>
    <path d="M33.25 17.5H31V16.75C31 16.5511 30.921 16.3603 30.7803 16.2197C30.6397 16.079 30.4489 16 30.25 16H22.75C22.5511 16 22.3603 16.079 22.2197 16.2197C22.079 16.3603 22 16.5511 22 16.75V17.5H19.75C19.3523 17.5005 18.971 17.6586 18.6898 17.9398C18.4086 18.221 18.2505 18.6023 18.25 19V34.75C18.2505 35.1477 18.4086 35.529 18.6898 35.8102C18.971 36.0914 19.3523 36.2495 19.75 36.25H33.25C33.6477 36.2495 34.029 36.0914 34.3102 35.8102C34.5914 35.529 34.7495 35.1477 34.75 34.75V19C34.7495 18.6023 34.5914 18.221 34.3102 17.9398C34.029 17.6586 33.6477 17.5005 33.25 17.5ZM23.5 17.5H29.5V19.75H23.5V17.5ZM29.5 29.5H23.5C23.3011 29.5 23.1103 29.421 22.9697 29.2803C22.829 29.1397 22.75 28.9489 22.75 28.75C22.75 28.5511 22.829 28.3603 22.9697 28.2197C23.1103 28.079 23.3011 28 23.5 28H29.5C29.6989 28 29.8897 28.079 30.0303 28.2197C30.171 28.3603 30.25 28.5511 30.25 28.75C30.25 28.9489 30.171 29.1397 30.0303 29.2803C29.8897 29.421 29.6989 29.5 29.5 29.5ZM29.5 26.5H23.5C23.3011 26.5 23.1103 26.421 22.9697 26.2803C22.829 26.1397 22.75 25.9489 22.75 25.75C22.75 25.5511 22.829 25.3603 22.9697 25.2197C23.1103 25.079 23.3011 25 23.5 25H29.5C29.6989 25 29.8897 25.079 30.0303 25.2197C30.171 25.3603 30.25 25.5511 30.25 25.75C30.25 25.9489 30.171 26.1397 30.0303 26.2803C29.8897 26.421 29.6989 26.5 29.5 26.5Z" fill="white"/>
</svg>
